<mxfile host="app.diagrams.net" modified="2023-06-19T18:29:30.456Z" agent="Mozilla/5.0 (Windows NT 10.0; Win64; x64; rv:109.0) Gecko/20100101 Firefox/116.0" etag="dARCFsObFBG8ns0SSVtK" version="21.5.0" type="device">
  <diagram name="Page-1" id="L1FHqdgqBIyoHqIw-E8v">
    <mxGraphModel dx="2216" dy="754" grid="1" gridSize="10" guides="1" tooltips="1" connect="1" arrows="1" fold="1" page="1" pageScale="1" pageWidth="850" pageHeight="1100" math="0" shadow="0">
      <root>
        <mxCell id="0" />
        <mxCell id="1" parent="0" />
        <mxCell id="BK1hQ9IQ45it-JMYOrbf-2" value="Gray code VC" style="rounded=0;whiteSpace=wrap;html=1;" vertex="1" parent="1">
          <mxGeometry x="210" y="320" width="100" height="50" as="geometry" />
        </mxCell>
        <mxCell id="BK1hQ9IQ45it-JMYOrbf-6" value="" style="edgeStyle=orthogonalEdgeStyle;rounded=0;orthogonalLoop=1;jettySize=auto;html=1;" edge="1" parent="1" source="BK1hQ9IQ45it-JMYOrbf-3" target="BK1hQ9IQ45it-JMYOrbf-5">
          <mxGeometry relative="1" as="geometry" />
        </mxCell>
        <mxCell id="BK1hQ9IQ45it-JMYOrbf-3" value="Gray code DUT" style="rounded=0;whiteSpace=wrap;html=1;" vertex="1" parent="1">
          <mxGeometry x="200" y="400" width="120" height="60" as="geometry" />
        </mxCell>
        <mxCell id="BK1hQ9IQ45it-JMYOrbf-4" value="" style="endArrow=classic;startArrow=classic;html=1;rounded=0;exitX=0.5;exitY=0;exitDx=0;exitDy=0;entryX=0.5;entryY=1;entryDx=0;entryDy=0;" edge="1" parent="1" source="BK1hQ9IQ45it-JMYOrbf-3" target="BK1hQ9IQ45it-JMYOrbf-2">
          <mxGeometry width="50" height="50" relative="1" as="geometry">
            <mxPoint x="400" y="430" as="sourcePoint" />
            <mxPoint x="450" y="380" as="targetPoint" />
          </mxGeometry>
        </mxCell>
        <mxCell id="BK1hQ9IQ45it-JMYOrbf-8" value="" style="edgeStyle=orthogonalEdgeStyle;rounded=0;orthogonalLoop=1;jettySize=auto;html=1;" edge="1" parent="1" source="BK1hQ9IQ45it-JMYOrbf-5" target="BK1hQ9IQ45it-JMYOrbf-7">
          <mxGeometry relative="1" as="geometry" />
        </mxCell>
        <mxCell id="BK1hQ9IQ45it-JMYOrbf-10" value="" style="edgeStyle=orthogonalEdgeStyle;rounded=0;orthogonalLoop=1;jettySize=auto;html=1;" edge="1" parent="1" source="BK1hQ9IQ45it-JMYOrbf-5" target="BK1hQ9IQ45it-JMYOrbf-9">
          <mxGeometry relative="1" as="geometry" />
        </mxCell>
        <mxCell id="BK1hQ9IQ45it-JMYOrbf-5" value="Clk_sync DUT" style="rounded=0;whiteSpace=wrap;html=1;" vertex="1" parent="1">
          <mxGeometry x="360" y="400" width="120" height="60" as="geometry" />
        </mxCell>
        <mxCell id="BK1hQ9IQ45it-JMYOrbf-7" value="Clk_sync VC" style="rounded=0;whiteSpace=wrap;html=1;" vertex="1" parent="1">
          <mxGeometry x="370" y="320" width="100" height="50" as="geometry" />
        </mxCell>
        <mxCell id="BK1hQ9IQ45it-JMYOrbf-9" value="Pulse shaper DUT " style="rounded=0;whiteSpace=wrap;html=1;" vertex="1" parent="1">
          <mxGeometry x="520" y="400" width="120" height="60" as="geometry" />
        </mxCell>
        <mxCell id="BK1hQ9IQ45it-JMYOrbf-11" value="Pulse shaper VC" style="rounded=0;whiteSpace=wrap;html=1;" vertex="1" parent="1">
          <mxGeometry x="530" y="320" width="100" height="50" as="geometry" />
        </mxCell>
        <mxCell id="BK1hQ9IQ45it-JMYOrbf-12" value="" style="endArrow=classic;startArrow=classic;html=1;rounded=0;entryX=0.5;entryY=1;entryDx=0;entryDy=0;exitX=0.5;exitY=0;exitDx=0;exitDy=0;" edge="1" parent="1" source="BK1hQ9IQ45it-JMYOrbf-9" target="BK1hQ9IQ45it-JMYOrbf-11">
          <mxGeometry width="50" height="50" relative="1" as="geometry">
            <mxPoint x="540" y="530" as="sourcePoint" />
            <mxPoint x="590" y="480" as="targetPoint" />
          </mxGeometry>
        </mxCell>
        <mxCell id="BK1hQ9IQ45it-JMYOrbf-13" value="TestCtrl" style="rounded=0;whiteSpace=wrap;html=1;" vertex="1" parent="1">
          <mxGeometry x="360" y="180" width="120" height="60" as="geometry" />
        </mxCell>
        <mxCell id="BK1hQ9IQ45it-JMYOrbf-14" value="" style="endArrow=classic;startArrow=classic;html=1;rounded=0;exitX=0.5;exitY=0;exitDx=0;exitDy=0;entryX=0.25;entryY=1;entryDx=0;entryDy=0;" edge="1" parent="1" source="BK1hQ9IQ45it-JMYOrbf-2" target="BK1hQ9IQ45it-JMYOrbf-13">
          <mxGeometry width="50" height="50" relative="1" as="geometry">
            <mxPoint x="220" y="280" as="sourcePoint" />
            <mxPoint x="270" y="230" as="targetPoint" />
            <Array as="points">
              <mxPoint x="260" y="280" />
              <mxPoint x="390" y="280" />
            </Array>
          </mxGeometry>
        </mxCell>
        <mxCell id="BK1hQ9IQ45it-JMYOrbf-15" value="" style="endArrow=classic;startArrow=classic;html=1;rounded=0;exitX=0.75;exitY=1;exitDx=0;exitDy=0;entryX=0.5;entryY=0;entryDx=0;entryDy=0;" edge="1" parent="1" source="BK1hQ9IQ45it-JMYOrbf-13" target="BK1hQ9IQ45it-JMYOrbf-11">
          <mxGeometry width="50" height="50" relative="1" as="geometry">
            <mxPoint x="580" y="270" as="sourcePoint" />
            <mxPoint x="630" y="220" as="targetPoint" />
            <Array as="points">
              <mxPoint x="450" y="280" />
              <mxPoint x="580" y="280" />
            </Array>
          </mxGeometry>
        </mxCell>
        <mxCell id="BK1hQ9IQ45it-JMYOrbf-16" value="" style="endArrow=classic;html=1;rounded=0;exitX=0.5;exitY=0;exitDx=0;exitDy=0;entryX=0.5;entryY=1;entryDx=0;entryDy=0;" edge="1" parent="1" source="BK1hQ9IQ45it-JMYOrbf-7" target="BK1hQ9IQ45it-JMYOrbf-13">
          <mxGeometry width="50" height="50" relative="1" as="geometry">
            <mxPoint x="510" y="250" as="sourcePoint" />
            <mxPoint x="560" y="200" as="targetPoint" />
          </mxGeometry>
        </mxCell>
        <mxCell id="BK1hQ9IQ45it-JMYOrbf-17" value="Hard decision VC" style="rounded=0;whiteSpace=wrap;html=1;" vertex="1" parent="1">
          <mxGeometry x="210" y="590" width="100" height="50" as="geometry" />
        </mxCell>
        <mxCell id="BK1hQ9IQ45it-JMYOrbf-21" value="" style="edgeStyle=orthogonalEdgeStyle;rounded=0;orthogonalLoop=1;jettySize=auto;html=1;" edge="1" parent="1" source="BK1hQ9IQ45it-JMYOrbf-18" target="BK1hQ9IQ45it-JMYOrbf-20">
          <mxGeometry relative="1" as="geometry" />
        </mxCell>
        <mxCell id="BK1hQ9IQ45it-JMYOrbf-18" value="Match filter DUT " style="rounded=0;whiteSpace=wrap;html=1;" vertex="1" parent="1">
          <mxGeometry x="520" y="500" width="120" height="60" as="geometry" />
        </mxCell>
        <mxCell id="BK1hQ9IQ45it-JMYOrbf-19" value="" style="endArrow=classic;html=1;rounded=0;exitX=1;exitY=0.5;exitDx=0;exitDy=0;entryX=1;entryY=0.5;entryDx=0;entryDy=0;" edge="1" parent="1" source="BK1hQ9IQ45it-JMYOrbf-9" target="BK1hQ9IQ45it-JMYOrbf-18">
          <mxGeometry width="50" height="50" relative="1" as="geometry">
            <mxPoint x="400" y="550" as="sourcePoint" />
            <mxPoint x="450" y="500" as="targetPoint" />
            <Array as="points">
              <mxPoint x="680" y="430" />
              <mxPoint x="680" y="490" />
              <mxPoint x="680" y="530" />
            </Array>
          </mxGeometry>
        </mxCell>
        <mxCell id="BK1hQ9IQ45it-JMYOrbf-23" value="" style="edgeStyle=orthogonalEdgeStyle;rounded=0;orthogonalLoop=1;jettySize=auto;html=1;" edge="1" parent="1" source="BK1hQ9IQ45it-JMYOrbf-20" target="BK1hQ9IQ45it-JMYOrbf-22">
          <mxGeometry relative="1" as="geometry" />
        </mxCell>
        <mxCell id="BK1hQ9IQ45it-JMYOrbf-20" value="Downsample DUT" style="rounded=0;whiteSpace=wrap;html=1;" vertex="1" parent="1">
          <mxGeometry x="365" y="500" width="120" height="60" as="geometry" />
        </mxCell>
        <mxCell id="BK1hQ9IQ45it-JMYOrbf-26" value="" style="edgeStyle=orthogonalEdgeStyle;rounded=0;orthogonalLoop=1;jettySize=auto;html=1;" edge="1" parent="1" source="BK1hQ9IQ45it-JMYOrbf-22" target="BK1hQ9IQ45it-JMYOrbf-17">
          <mxGeometry relative="1" as="geometry" />
        </mxCell>
        <mxCell id="BK1hQ9IQ45it-JMYOrbf-22" value="Hard decision DUT" style="rounded=0;whiteSpace=wrap;html=1;" vertex="1" parent="1">
          <mxGeometry x="200" y="500" width="120" height="60" as="geometry" />
        </mxCell>
        <mxCell id="BK1hQ9IQ45it-JMYOrbf-25" value="" style="edgeStyle=orthogonalEdgeStyle;rounded=0;orthogonalLoop=1;jettySize=auto;html=1;" edge="1" parent="1" source="BK1hQ9IQ45it-JMYOrbf-24" target="BK1hQ9IQ45it-JMYOrbf-3">
          <mxGeometry relative="1" as="geometry" />
        </mxCell>
        <mxCell id="BK1hQ9IQ45it-JMYOrbf-24" value="PBRS DUT" style="rounded=0;whiteSpace=wrap;html=1;" vertex="1" parent="1">
          <mxGeometry x="40" y="400" width="120" height="60" as="geometry" />
        </mxCell>
        <mxCell id="BK1hQ9IQ45it-JMYOrbf-31" value="" style="endArrow=classic;html=1;rounded=0;exitX=1;exitY=0.5;exitDx=0;exitDy=0;entryX=1;entryY=0.5;entryDx=0;entryDy=0;" edge="1" parent="1" source="BK1hQ9IQ45it-JMYOrbf-17" target="BK1hQ9IQ45it-JMYOrbf-13">
          <mxGeometry width="50" height="50" relative="1" as="geometry">
            <mxPoint x="480" y="660" as="sourcePoint" />
            <mxPoint x="530" y="610" as="targetPoint" />
            <Array as="points">
              <mxPoint x="720" y="615" />
              <mxPoint x="720" y="210" />
            </Array>
          </mxGeometry>
        </mxCell>
        <mxCell id="BK1hQ9IQ45it-JMYOrbf-32" value="Clk sync test1" style="rounded=0;whiteSpace=wrap;html=1;" vertex="1" parent="1">
          <mxGeometry x="30" y="176" width="120" height="40" as="geometry" />
        </mxCell>
        <mxCell id="BK1hQ9IQ45it-JMYOrbf-33" value="Gray code test1" style="rounded=0;whiteSpace=wrap;html=1;" vertex="1" parent="1">
          <mxGeometry x="30" y="126" width="120" height="40" as="geometry" />
        </mxCell>
        <mxCell id="BK1hQ9IQ45it-JMYOrbf-34" value="Pulse shaper test1" style="rounded=0;whiteSpace=wrap;html=1;" vertex="1" parent="1">
          <mxGeometry x="30" y="227" width="120" height="40" as="geometry" />
        </mxCell>
        <mxCell id="BK1hQ9IQ45it-JMYOrbf-35" value="Pulse shaper directed test1" style="rounded=0;whiteSpace=wrap;html=1;" vertex="1" parent="1">
          <mxGeometry x="30" y="277" width="120" height="40" as="geometry" />
        </mxCell>
        <mxCell id="BK1hQ9IQ45it-JMYOrbf-38" value="" style="endArrow=none;dashed=1;html=1;rounded=0;entryX=0.25;entryY=0;entryDx=0;entryDy=0;exitX=1;exitY=0.5;exitDx=0;exitDy=0;" edge="1" parent="1" source="BK1hQ9IQ45it-JMYOrbf-33" target="BK1hQ9IQ45it-JMYOrbf-13">
          <mxGeometry width="50" height="50" relative="1" as="geometry">
            <mxPoint x="180" y="150" as="sourcePoint" />
            <mxPoint x="285" y="80" as="targetPoint" />
            <Array as="points">
              <mxPoint x="390" y="146" />
            </Array>
          </mxGeometry>
        </mxCell>
        <mxCell id="BK1hQ9IQ45it-JMYOrbf-39" value="" style="endArrow=none;dashed=1;html=1;rounded=0;entryX=0;entryY=0.25;entryDx=0;entryDy=0;exitX=1;exitY=0.5;exitDx=0;exitDy=0;" edge="1" parent="1" source="BK1hQ9IQ45it-JMYOrbf-32" target="BK1hQ9IQ45it-JMYOrbf-13">
          <mxGeometry width="50" height="50" relative="1" as="geometry">
            <mxPoint x="220" y="240" as="sourcePoint" />
            <mxPoint x="270" y="190" as="targetPoint" />
          </mxGeometry>
        </mxCell>
        <mxCell id="BK1hQ9IQ45it-JMYOrbf-42" value="" style="endArrow=none;dashed=1;html=1;rounded=0;exitX=1;exitY=0.5;exitDx=0;exitDy=0;entryX=0;entryY=0.5;entryDx=0;entryDy=0;" edge="1" parent="1" source="BK1hQ9IQ45it-JMYOrbf-34" target="BK1hQ9IQ45it-JMYOrbf-13">
          <mxGeometry width="50" height="50" relative="1" as="geometry">
            <mxPoint x="190" y="230" as="sourcePoint" />
            <mxPoint x="240" y="180" as="targetPoint" />
            <Array as="points">
              <mxPoint x="210" y="247" />
              <mxPoint x="210" y="210" />
            </Array>
          </mxGeometry>
        </mxCell>
        <mxCell id="BK1hQ9IQ45it-JMYOrbf-43" value="" style="endArrow=none;dashed=1;html=1;rounded=0;exitX=1;exitY=0.5;exitDx=0;exitDy=0;entryX=0;entryY=0.75;entryDx=0;entryDy=0;" edge="1" parent="1" source="BK1hQ9IQ45it-JMYOrbf-35" target="BK1hQ9IQ45it-JMYOrbf-13">
          <mxGeometry width="50" height="50" relative="1" as="geometry">
            <mxPoint x="190" y="230" as="sourcePoint" />
            <mxPoint x="240" y="180" as="targetPoint" />
            <Array as="points">
              <mxPoint x="230" y="297" />
              <mxPoint x="230" y="225" />
            </Array>
          </mxGeometry>
        </mxCell>
        <mxCell id="BK1hQ9IQ45it-JMYOrbf-45" value="" style="rounded=0;whiteSpace=wrap;html=1;fillColor=none;dashed=1;strokeWidth=2;perimeterSpacing=0;dashPattern=12 12;" vertex="1" parent="1">
          <mxGeometry x="-10" y="70" width="770" height="610" as="geometry" />
        </mxCell>
        <mxCell id="BK1hQ9IQ45it-JMYOrbf-46" value="&lt;font style=&quot;font-size: 19px;&quot;&gt;&lt;b&gt;TLM testbench&lt;/b&gt;&lt;/font&gt;" style="text;html=1;strokeColor=none;fillColor=none;align=center;verticalAlign=middle;whiteSpace=wrap;rounded=0;" vertex="1" parent="1">
          <mxGeometry x="302.5" y="70" width="145" height="30" as="geometry" />
        </mxCell>
      </root>
    </mxGraphModel>
  </diagram>
</mxfile>
